MoBL_ARMS_module2_4_allmuscles elbow_states	
version=1	
nRows=210	
nColumns=2	
inDegrees=yes	
	
# SIMM Motion File Header:	
name MoBL_ARMS_module2_4_allmuscles elbow_states	
datacolumns 2	
datarows 210	
otherdata 1	
range 4.904371559 5.365280216	
endheader	
time	elbow_flexion
4.904371559	34.40418699
4.906455353	34.31357008
4.908539147	34.22294303
4.91111172	34.11107685
4.91319547	34.02050752
4.915279219	33.92999684
4.917362969	33.8395646
4.919935673	33.72804932
4.922019442	33.63786238
4.92410321	33.54781944
4.926186979	33.45794359
4.928759701	33.34724619
4.930843407	33.25783767
4.932927112	33.16867658
4.935010818	33.07978454
4.937583734	32.97042275
4.939667421	32.8822018
4.941751109	32.79431165
4.943834796	32.70677437
4.946407807	32.59920287
4.948491469	32.51254349
4.95057513	32.42631631
4.952658792	32.34054213
4.955231736	32.23527729
4.957315414	32.15057455
4.959399092	32.06637501
4.96148277	31.98269529
4.964055904	31.88010713
4.96613961	31.79766482
4.968223315	31.71581242
4.970307021	31.63456922
4.972880025	31.53511099
4.974963666	31.45528109
4.977047306	31.37610039
4.979130947	31.29758083
4.981704123	31.20154625
4.983787759	31.12455531
4.985871396	31.04827258
4.987955033	30.97271131
4.990528253	30.8804084
4.992611871	30.80649973
4.99469549	30.73334496
4.996779108	30.66095211
4.999352396	30.57260905
5.001436003	30.50194639
5.003519611	30.43206908
5.005603218	30.36298387
5.008176554	30.27876407
5.01026015	30.21147351
5.012343747	30.14499669
5.014427344	30.0793409
5.017000722	29.99939734
5.01908431	29.93560808
5.021167899	29.87266842
5.023251488	29.81058583
5.025824899	29.73510268
5.027908462	29.67496716
5.029992026	29.61572309
5.032075589	29.55738866
5.034645997	29.4867087
5.036733549	29.43037433
5.038821102	29.37501419
5.040908655	29.3206411
5.043469038	29.25531836
5.045554262	29.2032457
5.047639486	29.15220123
5.04972471	29.10220031
5.052290434	29.0421253
5.054375924	28.99447652
5.056461413	28.94788516
5.058546903	28.9023438
5.061112831	28.84773897
5.06319785	28.80452148
5.065282869	28.76233443
5.067367888	28.72117444
5.069933577	28.6719266
5.07202069	28.63298922
5.074107803	28.59503686
5.076194916	28.55804405
5.078755719	28.51393129
5.080841297	28.4790211
5.082926874	28.44501217
5.085012452	28.41189918
5.087577188	28.37239698
5.089662731	28.34125232
5.091748275	28.31096499
5.093833819	28.28151221
5.096399384	28.2463933
5.098484521	28.21873728
5.100569658	28.19186784
5.102654795	28.16578216
5.105221711	28.13474405
5.107306752	28.11040441
5.109391793	28.08684462
5.111476833	28.06406224
5.114044219	28.03707149
5.116129207	28.0160095
5.118214195	27.99571253
5.120299182	27.97617821
5.122867017	27.95316558
5.124951689	27.93533008
5.127036362	27.9182519
5.129121035	27.90192877
5.131689951	27.88284821
5.133774469	27.86820076
5.135858988	27.85429816
5.137943506	27.84113787
5.140513103	27.82593349
5.142597478	27.81442356
5.144681853	27.80364849
5.146766228	27.7936055
5.149336424	27.78222503
5.151420661	27.77380593
5.153504897	27.76610807
5.155589134	27.75912782
5.158159885	27.75150132
5.16024401	27.74611136
5.162328136	27.74142778
5.164412261	27.73744716
5.16698347	27.73349935
5.169067501	27.73107513
5.171151532	27.72934049
5.173235563	27.72829077
5.175807159	27.72793254
5.177891111	27.728396
5.179975063	27.72952926
5.182059015	27.73132751
5.184630933	27.73445621
5.186714821	27.73772173
5.188798709	27.74163525
5.190882598	27.74619113
5.193454781	27.75269193
5.195538612	27.75866256
5.197622443	27.76525748
5.199706274	27.77247123
5.20227869	27.78222157
5.204362475	27.79079756
5.206446259	27.79997374
5.208530044	27.80974391
5.211102651	27.82261601
5.213186396	27.83369053
5.215270142	27.84533861
5.217353887	27.85755377
5.219926643	27.87340803
5.222010371	27.88686609
5.224094099	27.90086909
5.226177828	27.91540982
5.228750678	27.9340948
5.23083437	27.94981045
5.232918062	27.96603977
5.235001754	27.98277496
5.237574738	28.00412613
5.239658408	28.02196299
5.241742078	28.04027993
5.243825747	28.05906892
5.246398827	28.08291034
5.248482476	28.10272466
5.250566124	28.12298447
5.252649773	28.14368138
5.255222938	28.16983124
5.25730657	28.19147423
5.259390202	28.21352692
5.261473834	28.23598091
5.264047067	28.26425246
5.266130685	28.28757327
5.268214303	28.31126882
5.27029792	28.3353311
5.272871212	28.36554253
5.274954818	28.39039547
5.277038424	28.41558949
5.27912203	28.44111691
5.281695371	28.47309333
5.283778967	28.49933883
5.285862562	28.52589381
5.287946158	28.55275079
5.29051954	28.58632639
5.292603128	28.61383034
5.294686715	28.64161101
5.296770302	28.66966046
5.299343714	28.7046632
5.301427301	28.73328462
5.303510888	28.7621485
5.305594476	28.791246
5.308167898	28.82749299
5.310251475	28.85707935
5.312335053	28.88686949
5.31441863	28.91685428
5.316992086	28.95414383
5.319075659	28.98453
5.321159232	29.01508033
5.323242805	29.04578504
5.325816281	29.08390781
5.327899849	29.11492257
5.329983418	29.14606112
5.332066986	29.17731459
5.334640481	29.21606264
5.336724045	29.24754158
5.33880761	29.2791074
5.340891174	29.3107515
5.343464685	29.34993231
5.345548246	29.38172158
5.347631808	29.41356313
5.349715369	29.44544949
5.352288893	29.48488495
5.354372451	29.51684467
5.35645601	29.54882527
5.358539569	29.58081932
5.361113103	29.6203447
5.36319666	29.6523419
5.365280216	29.6843285
